<?xml version="1.0" encoding="UTF-8" standalone="no"?>
<!-- Created with Inkscape (http://www.inkscape.org/) -->

<svg
   xmlns:dc="http://purl.org/dc/elements/1.1/"
   xmlns:cc="http://creativecommons.org/ns#"
   xmlns:rdf="http://www.w3.org/1999/02/22-rdf-syntax-ns#"
   xmlns:svg="http://www.w3.org/2000/svg"
   xmlns="http://www.w3.org/2000/svg"
   xmlns:sodipodi="http://sodipodi.sourceforge.net/DTD/sodipodi-0.dtd"
   xmlns:inkscape="http://www.inkscape.org/namespaces/inkscape"
   width="256"
   height="256"
   id="svg3091"
   version="1.1"
   inkscape:version="0.48.4 r9939"
   sodipodi:docname="icon.svg"
   inkscape:export-filename="/home/lee/addons/plugin.image.windows-wallpaper/icon.png"
   inkscape:export-xdpi="90"
   inkscape:export-ydpi="90">
  <defs
     id="defs3093" />
  <sodipodi:namedview
     id="base"
     pagecolor="#ffffff"
     bordercolor="#666666"
     borderopacity="1.0"
     inkscape:pageopacity="1"
     inkscape:pageshadow="2"
     inkscape:zoom="1.4"
     inkscape:cx="65.47857"
     inkscape:cy="64.976523"
     inkscape:document-units="px"
     inkscape:current-layer="layer1"
     showgrid="false"
     inkscape:window-width="1600"
     inkscape:window-height="876"
     inkscape:window-x="0"
     inkscape:window-y="24"
     inkscape:window-maximized="1" />
  <metadata
     id="metadata3096">
    <rdf:RDF>
      <cc:Work
         rdf:about="">
        <dc:format>image/svg+xml</dc:format>
        <dc:type
           rdf:resource="http://purl.org/dc/dcmitype/StillImage" />
        <dc:title></dc:title>
      </cc:Work>
    </rdf:RDF>
  </metadata>
  <g
     inkscape:label="Layer 1"
     inkscape:groupmode="layer"
     id="layer1"
     transform="translate(0,-796.36218)">
    <g
       id="g3135"
       transform="matrix(0.9,0,0,0.9,35.428588,98.093357)">
      <path
         id="path26"
         class="fil0"
         d="m 227.78873,910.82117 c 0.77428,-0.19289 1.68305,-0.11139 2.29298,0.451 1.04055,0.85308 1.0297,2.66113 -0.007,3.5115 -0.99707,0.89248 -2.75895,0.72404 -3.54547,-0.36541 -0.72268,-1.23345 -0.33281,-3.30095 1.25927,-3.59709 z"
         inkscape:connector-curvature="0"
         style="fill:#0dadea;fill-rule:evenodd" />
      <path
         id="path28"
         class="fil1"
         d="m 228.17044,910.92441 c 1.16686,-0.18203 2.41119,0.73083 2.45871,1.94254 0.22279,1.46301 -1.47387,2.75894 -2.83092,2.21965 -0.97128,-0.34368 -1.5948,-1.43721 -1.41684,-2.44787 0.18204,-0.85037 0.90472,-1.60293 1.78767,-1.71432 z"
         inkscape:connector-curvature="0"
         style="fill:#fdfeff;fill-rule:evenodd" />
      <path
         id="path36"
         class="fil1"
         d="m 228.02915,911.8916 c 0.32738,0.007 0.65749,0.0109 0.9903,0.0122 -0.007,0.32059 -0.007,0.63982 -0.004,0.9604 -0.32873,0.004 -0.65611,0.0109 -0.97806,0.0177 -0.007,-0.33145 -0.008,-0.66019 -0.008,-0.99028 z"
         inkscape:connector-curvature="0"
         style="fill:#fdfeff;fill-rule:evenodd" />
      <path
         class="fil0"
         d="m -25.142904,898.37944 22.2875313,-3.06323 0,21.5078 -22.2861723,0 -0.0014,-18.44457 z m 22.2875313,21.19672 0,21.26465 -22.2848143,-3.05916 -0.0014,-18.20413 22.2861723,0 z m 2.46552399,-24.59819 29.65693671,-4.07661 0,25.92265 -29.65693671,0 0,-21.84604 z m 29.65693671,24.59819 0,25.67542 -29.65693671,-4.07253 0,-21.60289 29.65693671,0 z"
         id="path13"
         inkscape:connector-curvature="0"
         style="fill:#0dadea;fill-rule:evenodd" />
      <path
         class="fil2"
         d="m 86.762046,902.47099 -8.28362,31.63071 -5.67139,0 -5.756966,-22.12044 c -0.237724,-0.94138 -0.381714,-1.97242 -0.43877,-3.09447 l -0.08694,0 c -0.072,1.04598 -0.237724,2.06343 -0.503973,3.04964 l -5.778703,22.16663 -5.800435,0 -8.45614,-31.63071 5.505662,0 5.483925,23.15963 c 0.222779,0.97127 0.366772,1.98736 0.417033,3.04149 l 0.107315,0 c 0.05705,-0.74577 0.251307,-1.76186 0.589552,-3.04149 l 6.197094,-23.15963 5.167414,0 5.736592,23.33351 c 0.19425,0.79739 0.34504,1.73877 0.44692,2.82279 l 0.0788,0 c 0.0435,-0.73083 0.2092,-1.7021 0.48903,-2.90566 l 5.37661,-23.25064 5.18235,0 z m 6.11694,4.29938 c -0.79875,0 -1.48203,-0.27168 -2.0512,-0.81369 -0.57597,-0.55016 -0.85581,-1.2348 -0.85581,-2.07837 0,-0.83543 0.2812,-1.53637 0.85581,-2.09332 0.56917,-0.55695 1.25245,-0.83543 2.0512,-0.83543 0.82728,0 1.53366,0.27848 2.10827,0.83543 0.57596,0.55695 0.86395,1.25789 0.86395,2.09332 0,0.79739 -0.28799,1.47524 -0.86395,2.04034 -0.57597,0.57189 -1.28099,0.85037 -2.10827,0.85037 z m 2.42613,27.33133 -4.89437,0 0,-22.58774 4.89437,0 z m 25.614294,0 -4.88622,0 0,-12.72428 c 0,-4.22331 -1.43177,-6.33157 -4.28172,-6.33157 -1.49019,0 -2.72091,0.58004 -3.69218,1.75371 -0.97126,1.16688 -1.4535,2.64348 -1.4535,4.42029 l 0,12.88321 -4.91611,0 0,-22.58774 4.91611,0 0,3.74923 0.0869,0 c 1.61244,-2.85403 3.95163,-4.27629 6.99584,-4.27629 2.35277,0 4.14588,0.79739 5.3766,2.39488 1.23753,1.58799 1.85697,3.90002 1.85697,6.91162 l 0,13.8083 z m 25.60071,0 -4.89437,0 0,-3.84024 -0.0788,0 c -1.57576,2.9138 -4.00188,4.36731 -7.27565,4.36731 -2.65572,0 -4.78573,-1.0093 -6.37642,-3.0347 -1.5975,-2.01725 -2.39625,-4.77348 -2.39625,-8.25917 0,-3.73429 0.8857,-6.72416 2.64891,-8.97505 1.76323,-2.2509 4.10922,-3.37295 7.05289,-3.37295 2.90702,0 5.02345,1.21986 6.3479,3.65957 l 0.0788,0 0,-13.98217 4.89436,0 0,33.4374 z m -4.82918,-10.3226 0,-2.95863 c 0,-1.60429 -0.49716,-2.95863 -1.49696,-4.08068 -0.9998,-1.1139 -2.26719,-1.67085 -3.81444,-1.67085 -1.82842,0 -3.26699,0.70773 -4.3116,2.13814 -1.05143,1.42363 -1.57576,3.40284 -1.57576,5.93357 0,2.29708 0.50397,4.10377 1.5119,5.43638 0.9998,1.3326 2.3528,1.99551 4.05897,1.99551 1.66949,0 3.03062,-0.63981 4.06572,-1.92759 1.04328,-1.28778 1.56217,-2.90565 1.56217,-4.86449 z m 20.78512,10.84967 c -3.32538,0 -5.98787,-1.05413 -7.97389,-3.16239 -1.99415,-2.10826 -2.98715,-4.90932 -2.98715,-8.39501 0,-3.79542 1.03648,-6.75405 3.1094,-8.8922 2.07295,-2.13135 4.86585,-3.19227 8.38415,-3.19227 3.36889,0 6.00284,1.03104 7.88016,3.10941 1.88548,2.07023 2.82823,4.94735 2.82823,8.62051 0,3.60659 -1.01474,6.49051 -3.04421,8.65854 -2.03625,2.16803 -4.76396,3.25205 -8.19804,3.25205 z m 0.23773,-19.56119 c -1.914,0 -3.42592,0.69279 -4.53439,2.09332 -1.10847,1.40052 -1.6695,3.31997 -1.6695,5.78277 0,2.36365 0.56103,4.23147 1.69124,5.58717 1.1234,1.36249 2.62717,2.04034 4.51265,2.04034 1.92218,0 3.40421,-0.6697 4.43388,-2.0023 1.03647,-1.34076 1.55402,-3.24526 1.55402,-5.71486 0,-2.48454 -0.51755,-4.40398 -1.55402,-5.75968 -1.02967,-1.34755 -2.5117,-2.0254 -4.43388,-2.0254 z m 45.01792,-3.55362 -6.36961,22.58774 -5.12396,0 -3.92173,-15.30663 c -0.15895,-0.58683 -0.25131,-1.24974 -0.29479,-1.98736 l -0.0869,0 c -0.0285,0.50397 -0.15079,1.14379 -0.37358,1.94254 l -4.26135,15.35281 -5.02342,0 -6.34107,-22.58774 5.0601,0 3.92173,16.2779 c 0.12227,0.48903 0.2092,1.12884 0.2513,1.94253 l 0.14399,0 c 0.0435,-0.61672 0.15895,-1.27962 0.33827,-1.98736 l 4.36866,-16.23307 4.59145,0 3.87963,16.34582 c 0.12906,0.51212 0.22279,1.16009 0.27305,1.94254 l 0.15076,0 c 0.0285,-0.55016 0.13722,-1.18998 0.31653,-1.94254 l 3.83615,-16.34582 4.66345,0 z m 2.27398,21.88001 0,-4.74359 c 1.82842,1.4603 3.84295,2.18297 6.05311,2.18297 2.95048,0 4.4257,-0.91149 4.4257,-2.73313 0,-0.51212 -0.12903,-0.94817 -0.38171,-1.30951 -0.25131,-0.36134 -0.58955,-0.68464 -1.02152,-0.96312 -0.42519,-0.27847 -0.92916,-0.52706 -1.50376,-0.74577 -0.58955,-0.22549 -1.24569,-0.47409 -1.96429,-0.75256 -0.88568,-0.36949 -1.68443,-0.75256 -2.38944,-1.16688 -0.71317,-0.41432 -1.30272,-0.88025 -1.77001,-1.40053 -0.47545,-0.52706 -0.82729,-1.1139 -1.06502,-1.7768 -0.2445,-0.66291 -0.35997,-1.43042 -0.35997,-2.31882 0,-1.08402 0.24452,-2.04849 0.73356,-2.87577 0.49716,-0.82863 1.15872,-1.52821 1.98599,-2.09332 0.82727,-0.5651 1.77001,-0.99436 2.82144,-1.27962 1.05819,-0.28663 2.14492,-0.42926 3.26697,-0.42926 2.00096,0 3.78593,0.31651 5.36169,0.94817 l 0,4.47191 c -1.51873,-1.08402 -3.267,-1.62603 -5.23263,-1.62603 -0.61944,0 -1.18047,0.0598 -1.67628,0.19562 -0.49718,0.13584 -0.921,0.31651 -1.27419,0.55015 -0.3532,0.23365 -0.62625,0.51892 -0.82049,0.85037 -0.20105,0.33146 -0.29479,0.69279 -0.29479,1.09217 0,0.48224 0.0937,0.89655 0.29479,1.2348 0.19424,0.33824 0.48225,0.63981 0.87074,0.89655 0.38852,0.25538 0.84901,0.48903 1.39645,0.69959 0.53929,0.2187 1.15873,0.45235 1.86374,0.69958 0.92781,0.39123 1.75646,0.79875 2.49677,1.21171 0.74171,0.41431 1.36793,0.88161 1.88548,1.40052 0.51757,0.51892 0.92103,1.12206 1.2022,1.8067 0.2812,0.68464 0.42519,1.49833 0.42519,2.43971 0,1.14379 -0.2513,2.1463 -0.76342,2.99667 -0.50397,0.85852 -1.18047,1.5581 -2.0227,2.1232 -0.8422,0.55695 -1.81348,0.97127 -2.92195,1.24295 -1.10167,0.27169 -2.2672,0.40617 -3.49111,0.40617 -2.36093,0 -4.40399,-0.40617 -6.13189,-1.2348 z"
         id="path15"
         inkscape:connector-curvature="0"
         style="fill:#0dadea;fill-rule:nonzero"
         sodipodi:nodetypes="ccccccccccccccccccccccccccscscsccccccccccsscsccccccscsccccccscssscccccccscscscscscccscscsccccsscscscccccccccccccccccccccccccccccsscccccccscscsccscscscccccssscccscc" />
      <path
         class="fil2"
         d="m 33.752577,942.80508 -0.857159,0 0,2.42069 -0.494465,0 0,-2.42069 -0.855801,0 0,-0.39666 2.207425,0 0,0.39666 z m 3.640556,2.42069 -0.49039,0 0,-1.82299 c 0,-0.14943 0.0095,-0.33145 0.02853,-0.54744 l -0.0081,0 c -0.02989,0.12225 -0.05705,0.21191 -0.08151,0.26489 l -0.891121,2.1069 -0.340961,0 -0.892479,-2.0906 c -0.02445,-0.0611 -0.05162,-0.15622 -0.08015,-0.28119 l -0.0082,0 c 0.01087,0.11275 0.0163,0.29613 0.0163,0.55151 l 0,1.81892 -0.457786,0 0,-2.81735 0.696869,0 0.785164,1.87597 c 0.05841,0.14399 0.09781,0.25131 0.116823,0.32194 l 0.0095,0 c 0.05162,-0.14806 0.09237,-0.2581 0.124976,-0.33009 l 0.798747,-1.86782 0.672417,0 0,2.81735 z"
         id="path17"
         inkscape:connector-curvature="0"
         style="fill:#0dadea;fill-rule:nonzero" />
      <path
         class="fil2"
         d="m 228.45027,915.4656 c -0.66019,0 -1.22395,-0.22958 -1.68989,-0.69008 -0.46729,-0.4605 -0.69956,-1.01474 -0.69956,-1.66678 0,-0.64932 0.23227,-1.20491 0.69956,-1.66541 0.46594,-0.46051 1.0297,-0.69008 1.68989,-0.69008 0.66018,0 1.22256,0.22957 1.6885,0.69008 0.4673,0.4605 0.69959,1.01473 0.69959,1.66541 0,0.65068 -0.23229,1.20628 -0.69959,1.66678 -0.46594,0.4605 -1.02832,0.69008 -1.6885,0.69008 z m 0,-4.39855 c -0.56646,0 -1.04871,0.19968 -1.44809,0.5977 -0.39937,0.39937 -0.6004,0.88025 -0.6004,1.44399 0,0.56511 0.20103,1.04598 0.6004,1.44536 0.39938,0.39937 0.88298,0.5977 1.44809,0.5977 0.56645,0 1.05005,-0.19969 1.44805,-0.5977 0.39938,-0.39938 0.59773,-0.88025 0.59773,-1.44536 0,-0.56374 -0.1997,-1.04598 -0.59773,-1.44399 -0.39937,-0.39938 -0.8816,-0.5977 -1.44805,-0.5977 z m 1.22529,3.50199 -0.66292,0 -0.2907,-0.686 c -0.1467,-0.34232 -0.30565,-0.51348 -0.4768,-0.51348 l -0.24723,0 0,1.19948 -0.52978,0 0,-2.96814 0.88975,0 c 0.37086,0 0.65611,0.072 0.85854,0.21735 0.20103,0.14535 0.30156,0.34232 0.30156,0.59091 0,0.20376 -0.0625,0.379 -0.18474,0.52027 -0.12227,0.14399 -0.30429,0.23908 -0.54474,0.28799 l 0,0.0136 c 0.16573,0.0353 0.33146,0.2187 0.49584,0.5488 l 0.39122,0.7906 z m -1.67765,-2.51986 0,0.89384 0.39937,0 c 0.3627,0 0.54472,-0.14943 0.54472,-0.44828 0,-0.16165 -0.0489,-0.27712 -0.14669,-0.34368 -0.0978,-0.0679 -0.25269,-0.10188 -0.46595,-0.10188 l -0.33145,0 z"
         id="path19"
         inkscape:connector-curvature="0"
         style="fill:#0dadea;fill-rule:nonzero" />
    </g>
  </g>
</svg>
